#!OML:ASF F:\VICON\USERDATA\INSTALL\rory3\rory3.ASF
:FULLY-SPECIFIED
:DEGREES
292
root -0.00829863 17.9719 -1.06811 1.40835 -8.07334 1.49264
lowerback -1.69801 -0.582404 -3.75385
upperback 0.0974322 -0.716675 1.48263
thorax 1.11783 -0.384838 3.61309
lowerneck -17.013 -0.39808 -8.90397
upperneck 29.9372 1.08422 3.47527
head 12.7423 -0.0917788 3.04121
rclavicle -7.69048e-015 -2.78299e-015
rhumerus -8.2502 41.8916 -74.5372
rradius 120.818
rwrist 30.0909
rhand -2.06945 26.0095
rfingers 7.12502
rthumb 23.6068 -2.56139
lclavicle -7.69048e-015 -2.78299e-015
lhumerus -33.9709 -25.8409 100.748
lradius 88.6676
lwrist 9.12264
lhand -13.3221 21.5771
lfingers 7.12502
lthumb 12.7827 51.1657
rfemur -7.54013 7.02272 14.7409
rtibia 25.0462
rfoot -16.0754 -3.36642
rtoes 4.25504
lfemur -0.602183 -1.88063 -21.7258
ltibia 14.0606
lfoot -10.8383 3.69808
ltoes -11.7319
293
root -0.00738727 17.971 -1.0628 1.3782 -8.16243 1.52116
lowerback -1.74521 -0.567563 -3.74401
upperback 0.124089 -0.695062 1.47216
thorax 1.16951 -0.375506 3.59679
lowerneck -17.0491 -0.393302 -8.89943
upperneck 29.9339 1.11092 3.42165
head 12.7476 -0.086576 3.02397
rclavicle 3.98812e-015 1.94809e-014
rhumerus -8.26465 41.4598 -74.6516
rradius 121.004
rwrist 30.0597
rhand -2.74004 26.104
rfingers 7.12502
rthumb 22.9634 -2.54832
lclavicle 3.98812e-015 1.94809e-014
lhumerus -33.8891 -25.7153 100.678
lradius 88.6923
lwrist 8.96403
lhand -13.0631 21.5529
lfingers 7.12502
lthumb 13.0324 51.1258
rfemur -7.52837 7.05425 14.6956
rtibia 25.0658
rfoot -16.079 -3.26309
rtoes 4.31141
lfemur -0.535501 -1.90172 -21.7751
ltibia 14.0399
lfoot -10.8584 3.77739
ltoes -11.5622
294
root -0.00549922 17.9704 -1.06033 1.34384 -8.22613 1.4999
lowerback -1.72297 -0.561061 -3.69432
upperback 0.131058 -0.688214 1.47777
thorax 1.16302 -0.371773 3.57488
lowerneck -17.0128 -0.376382 -8.8831
upperneck 29.8888 1.13904 3.38092
head 12.7199 -0.076383 3.00785
rclavicle 1.07654e-014 1.31198e-014
rhumerus -8.37421 41.0241 -74.8421
rradius 121.231
rwrist 30.0671
rhand -3.40236 26.2614
rfingers 7.12502
rthumb 22.3278 -2.46854
lclavicle 1.07654e-014 1.31198e-014
lhumerus -33.8304 -25.542 100.586
lradius 88.6991
lwrist 8.5533
lhand -12.6348 21.3414
lfingers 7.12502
lthumb 13.4452 50.8875
rfemur -7.4982 7.09129 14.7157
rtibia 25.0743
rfoot -16.0774 -3.24944
rtoes 4.2635
lfemur -0.481504 -1.94745 -21.7703
ltibia 14.0358
lfoot -10.882 3.86529
ltoes -11.4289
295
root -0.00542582 17.9693 -1.06018 1.3165 -8.21683 1.5288
lowerback -1.69563 -0.574249 -3.71304
upperback 0.127781 -0.706287 1.46842
thorax 1.14605 -0.380479 3.57551
lowerneck -17.0088 -0.350419 -8.84658
upperneck 29.9087 1.18106 3.33061
head 12.725 -0.0610986 2.98893
rclavicle -6.7711e-015 4.77083e-015
rhumerus -8.52148 40.5286 -75.0468
rradius 121.49
rwrist 30.014
rhand -4.38553 26.4631
rfingers 7.12502
rthumb 21.3837 -2.37689
lclavicle -6.7711e-015 4.77083e-015
lhumerus -33.8284 -25.4143 100.558
lradius 88.7358
lwrist 8.26792
lhand -12.4292 21.0607
lfingers 7.12502
lthumb 13.6433 50.5935
rfemur -7.47027 7.06404 14.6881
rtibia 25.0787
rfoot -16.0847 -3.25685
rtoes 4.00904
lfemur -0.473911 -1.95196 -21.8024
ltibia 14.061
lfoot -10.8899 3.85722
ltoes -11.4942
296
root -0.00509248 17.9675 -1.05948 1.30969 -8.23422 1.47378
lowerback -1.72222 -0.58211 -3.6326
upperback 0.15823 -0.717378 1.47592
thorax 1.19233 -0.387052 3.53714
lowerneck -17.0014 -0.308563 -8.80828
upperneck 29.8792 1.24169 3.29051
head 12.7074 -0.0342981 2.97509
rclavicle 5.31749e-015 3.97569e-016
rhumerus -8.56927 39.958 -75.2142
rradius 121.688
rwrist 29.9445
rhand -5.84637 26.6961
rfingers 7.12502
rthumb 19.98 -2.2967
lclavicle 5.31749e-015 3.97569e-016
lhumerus -33.8598 -25.39 100.592
lradius 88.8967
lwrist 8.45906
lhand -12.648 20.9776
lfingers 7.12502
lthumb 13.4325 50.5245
rfemur -7.46147 7.05114 14.751
rtibia 25.0843
rfoot -16.0545 -3.26648
rtoes 3.95972
lfemur -0.482984 -1.87244 -21.7415
ltibia 14.1267
lfoot -10.9213 3.82238
ltoes -11.512
297
root -0.00464145 17.9667 -1.0582 1.29337 -8.29091 1.42486
lowerback -1.71144 -0.599959 -3.58236
upperback 0.160303 -0.743062 1.51384
thorax 1.19053 -0.399723 3.54731
lowerneck -16.9078 -0.248676 -8.85662
upperneck 29.7862 1.33549 3.28232
head 12.6425 0.00362603 2.99051
rclavicle 2.42393e-014 -1.78906e-014
rhumerus -8.86018 39.4794 -75.5194
rradius 121.935
rwrist 29.935
rhand -7.36365 26.4357
rfingers 7.12502
rthumb 18.521 -2.7026
lclavicle 2.42393e-014 -1.78906e-014
lhumerus -33.9654 -25.3373 100.711
lradius 89.1323
lwrist 8.95889
lhand -13.2586 21.0838
lfingers 7.12502
lthumb 12.8439 50.6686
rfemur -7.45383 7.13773 14.8009
rtibia 25.0984
rfoot -16.0706 -3.2394
rtoes 4.15368
lfemur -0.47833 -1.86297 -21.6956
ltibia 14.1917
lfoot -10.9531 3.8916
ltoes -11.3851
298
root -0.00377145 17.965 -1.05738 1.25851 -8.3049 1.46942
lowerback -1.72911 -0.616327 -3.58679
upperback 0.209534 -0.763554 1.48955
thorax 1.25259 -0.412033 3.52366
lowerneck -16.8906 -0.209654 -8.77407
upperneck 29.6861 1.39396 3.18671
head 12.5955 0.0294133 2.94516
rclavicle -1.61761e-014 1.98785e-015
rhumerus -9.11392 38.8596 -75.8565
rradius 122.254
rwrist 29.7018
rhand -8.38182 25.7507
rfingers 7.12502
rthumb 17.5414 -3.47793
lclavicle -1.61761e-014 1.98785e-015
lhumerus -33.9265 -25.2605 100.673
lradius 89.3243
lwrist 9.01933
lhand -13.4177 21.0061
lfingers 7.12502
lthumb 12.6905 50.6005
rfemur -7.43113 7.15829 14.751
rtibia 25.1143
rfoot -16.0856 -3.22211
rtoes 3.98714
lfemur -0.472068 -1.854 -21.7508
ltibia 14.2491
lfoot -10.9717 3.89974
ltoes -11.4316
